<svg id="svg" xmlns="http://www.w3.org/2000/svg" xmlns:xlink="http://www.w3.org/1999/xlink" width="400" height="116.72771672771673" viewBox="0, 0, 400,116.72771672771673"><g id="svgg"><path id="path0" d="M239.805 0.515 C 224.507 2.413,205.542 11.035,192.409 22.062 C 190.436 23.719,188.751 24.860,188.664 24.599 C 180.756 0.877,124.956 -6.596,94.830 12.034 C 81.891 20.035,77.466 33.338,84.379 43.448 C 89.178 50.466,94.421 51.121,101.021 45.527 C 104.343 42.711,104.449 42.365,102.619 40.281 C 98.324 35.390,97.058 28.003,99.645 22.933 C 108.915 4.762,164.674 5.346,173.658 23.708 C 177.930 32.440,172.751 40.049,159.707 44.206 C 153.201 46.279,138.206 46.402,136.964 44.393 C 136.401 43.481,145.257 29.692,151.570 21.649 L 152.469 20.504 150.349 19.542 C 146.990 18.018,144.926 18.237,142.567 20.368 C 136.524 25.827,126.557 38.777,110.127 62.515 C 104.271 70.977,98.310 79.484,96.882 81.421 L 94.284 84.941 92.441 84.172 C 85.843 81.419,81.002 78.319,76.812 74.162 L 73.770 71.145 71.778 71.742 C 66.971 73.183,66.724 76.425,70.791 84.737 C 80.584 104.756,103.709 116.722,132.601 116.722 C 148.809 116.722,160.616 113.578,170.265 106.692 L 173.399 104.456 175.955 106.701 C 189.525 118.620,216.821 120.156,237.657 110.173 C 252.423 103.099,264.898 90.602,268.454 79.322 C 270.058 74.234,266.690 72.323,263.581 76.557 C 245.099 101.725,201.176 100.154,191.894 73.993 C 184.244 52.432,205.071 19.823,232.435 10.515 C 247.229 5.484,255.125 10.258,248.514 20.238 L 246.955 22.593 248.630 23.978 C 256.684 30.638,264.126 28.938,267.427 19.684 C 272.017 6.815,259.428 -1.921,239.805 0.515 M321.417 18.466 C 320.325 20.508,281.193 104.349,280.961 105.145 C 280.727 105.950,281.115 106.006,285.993 105.878 L 291.279 105.739 311.679 62.027 C 322.898 37.985,332.086 18.150,332.095 17.949 C 332.137 17.056,321.907 17.552,321.417 18.466 M27.233 46.562 L 0.009 57.387 0.007 62.027 L 0.006 66.667 27.476 77.536 C 42.584 83.515,55.110 88.405,55.311 88.403 C 55.513 88.402,55.676 86.148,55.674 83.394 L 55.670 78.388 33.983 70.330 C 22.055 65.897,12.402 62.161,12.532 62.027 C 12.663 61.893,22.369 58.148,34.101 53.707 L 55.433 45.630 55.573 40.642 C 55.679 36.815,55.566 35.663,55.084 35.695 C 54.739 35.718,42.206 40.608,27.233 46.562 M344.427 40.545 L 344.567 45.559 365.812 53.575 C 377.497 57.984,387.215 61.748,387.407 61.939 C 387.600 62.131,378.039 65.930,366.162 70.383 L 344.567 78.478 344.427 83.501 C 344.289 88.443,344.304 88.519,345.346 88.247 C 345.928 88.095,358.463 83.191,373.202 77.351 L 400.000 66.731 400.000 62.025 L 400.000 57.318 373.154 46.689 C 358.389 40.842,345.854 35.940,345.298 35.794 C 344.318 35.538,344.291 35.683,344.427 40.545 M140.471 59.832 C 159.489 66.216,159.157 84.701,139.927 90.111 C 134.233 91.713,113.103 91.507,112.072 89.840 C 111.935 89.619,113.440 86.622,115.417 83.181 C 117.393 79.739,121.284 72.663,124.064 67.456 L 129.119 57.989 132.923 58.282 C 135.015 58.444,138.412 59.141,140.471 59.832 " stroke="none" fill="#FFFFFF" fill-rule="evenodd"></path></g></svg>